<svg width="67" height="56" viewBox="0 0 67 56" fill="none" xmlns="http://www.w3.org/2000/svg">
<path d="M61.1111 44.4444C64.1792 44.4444 66.6667 46.9319 66.6667 50C66.6667 53.0681 64.1792 55.5556 61.1111 55.5556C59.4417 55.5556 7.225 55.5556 5.55556 55.5556C2.4875 55.5556 0 53.0681 0 50C0 46.9319 2.4875 44.4444 5.55556 44.4444C7.225 44.4444 59.4417 44.4444 61.1111 44.4444ZM61.1111 22.2222C64.1792 22.2222 66.6667 24.7097 66.6667 27.7778C66.6667 30.8458 64.1792 33.3333 61.1111 33.3333C59.4417 33.3333 7.225 33.3333 5.55556 33.3333C2.4875 33.3333 0 30.8458 0 27.7778C0 24.7097 2.4875 22.2222 5.55556 22.2222C7.225 22.2222 59.4417 22.2222 61.1111 22.2222ZM61.1111 0C64.1792 0 66.6667 2.4875 66.6667 5.55556C66.6667 8.62361 64.1792 11.1111 61.1111 11.1111C59.4417 11.1111 7.225 11.1111 5.55556 11.1111C2.4875 11.1111 0 8.62361 0 5.55556C0 2.4875 2.4875 0 5.55556 0C7.225 0 59.4417 0 61.1111 0Z" fill="#252525"/>
</svg>
